<?xml version="1.0" encoding="utf-8"?>
<!-- Generator: Adobe Illustrator 16.0.0, SVG Export Plug-In . SVG Version: 6.00 Build 0)  -->
<!DOCTYPE svg PUBLIC "-//W3C//DTD SVG 1.1//EN" "http://www.w3.org/Graphics/SVG/1.1/DTD/svg11.dtd">
<svg version="1.1" id="Layer_1" xmlns="http://www.w3.org/2000/svg" xmlns:xlink="http://www.w3.org/1999/xlink" x="0px" y="0px"
	 width="461.477px" height="489.976px" viewBox="0 0 461.477 489.976" enable-background="new 0 0 461.477 489.976"
	 xml:space="preserve">
<circle fill="#000002" stroke="#000000" stroke-width="2" stroke-miterlimit="10" cx="230.897" cy="279.396" r="104.672"/>
<rect x="140.847" y="189.346" fill="#000002" stroke="#000000" stroke-width="2" stroke-miterlimit="10" width="180.101" height="180.101"/>
<g id="hidden_gear_bgnd" display="none">
	<g display="inline">
		<g>
			<path d="M216.774,313.379c1.121,0,1.469-1.459,0.16-1.459C215.814,311.92,215.466,313.379,216.774,313.379L216.774,313.379z"/>
		</g>
	</g>
	<path display="inline" d="M143.424,188.421c0,0,26.64,0,47.308,0c39.264-22.691,44.667-19.358,78,0c24.167,0,55.196,0,55.196,0
		s0,33.655,0,51.308c20.138,24.667,19.471,43.334-0.409,75.986c0,56.012-1.432,52.927-1.432,52.927s-36.035,0-54.688,0
		c-43.5,19.254-32.5,17.254-75.331-0.367c-28.978,0-48.645-1.472-48.645-1.472s0.006-30.41,0.006-50.407
		c-25.531-25-22.531-54-0.006-74.667C143.424,212.396,143.424,188.421,143.424,188.421z"/>
	<path display="inline" fill-rule="evenodd" clip-rule="evenodd" fill="#FFFFFF" d="M294.309,339.429
		c-7.856,7.572-19.285,9.584-29.043,6.044c-3.282-0.138-7.859,1.934-10.397,5.14c-4.563,8.491-13.754,14.297-24.349,14.297
		c-10.593,0-19.784-5.805-24.342-14.297c-3.484-4.113-6.457-5.705-12.564-4.455c-9.245,2.524-19.594,0.285-26.869-6.731
		c-7.088-6.837-9.477-16.496-7.171-25.238c0.943-3.575-2.227-11.573-5.416-13.331c-8.258-4.552-13.828-13.119-13.828-22.95
		c0-7.507,3.25-14.284,8.465-19.095c10.103-4.916,11.381-14.321,10.52-18.297c-1.83-8.439,0.646-17.572,7.437-24.123
		c7.41-7.147,18.018-9.338,27.395-6.581c3.257,0.958,10.515-1.774,12.034-4.604c4.558-8.489,13.749-14.297,24.34-14.297
		c9.691,0.003,18.208,4.855,23.078,12.177c2.214,3.328,9.916,7.739,13.061,6.784c9.436-2.866,20.166-0.693,27.643,6.52
		c6.942,6.699,9.376,16.094,7.31,24.686c-0.906,3.77,1.204,11.831,4.083,13.241c8.912,4.364,15.028,13.296,15.028,23.59
		c-0.003,9.898-5.646,18.528-13.994,23.059c-4.997,3.431-5.83,7.931-4.394,16.021C303.277,322.389,300.307,333.643,294.309,339.429"
		/>
	<path fill="#FFFFFF" stroke="#000000" stroke-miterlimit="10" d="M146.928,189.024h63.389c0,0,18.847-23.497,41.118,0h63.389
		v66.875c0,0,25.699,18.075,0,45.187v65.068h-63.389c0,0-20.559,36.148-41.118,0h-63.389v-65.068c0,0-27.412-23.496,0-45.187
		V189.024z"/>
</g>
<path display="none" fill="#000002" stroke="#000000" stroke-width="2" stroke-miterlimit="10" d="M140.296,192.694h44.752
	c0,0,39.779-45.247,91.99,0h43.508v33.936c0,0,50.967,41.348,0,101.27l-0.116,35.885h-44.635c0,0-45.996,45.244-90.747,0
	l-44.752-0.055v-35.83c0,0-45.995-48.953,0-98.441V192.694z"/>
<g id="gear_guides" display="none">
	<path d="M225.648,313.932c-6.45,0-12.096-0.538-16.976-1.63c-4.88-1.071-9.415-2.419-13.6-4.028v-17.419h1.931
		c4.203,3.111,8.875,5.513,13.944,7.189c5.093,1.665,10.03,2.504,14.814,2.504c1.217,0,2.796-0.119,4.786-0.335
		c1.96-0.235,3.563-0.608,4.761-1.092c1.485-0.553,2.716-1.33,3.74-2.334c1.021-1.008,1.529-2.317,1.529-3.965
		c0-1.828-0.838-3.321-2.494-4.463c-1.657-1.161-3.647-1.982-5.943-2.521c-2.854-0.655-5.918-1.275-9.176-1.866
		c-3.261-0.585-6.309-1.307-9.121-2.162c-6.525-2.003-11.208-4.687-14.026-8.063c-2.837-3.377-4.239-7.609-4.239-12.691
		c0-6.855,3.333-12.415,10.011-16.662c6.651-4.249,14.982-6.362,24.971-6.362c5.017,0,9.999,0.437,14.949,1.327
		c4.959,0.891,9.393,2.082,13.309,3.594v16.721h-1.869c-3.121-2.331-6.945-4.296-11.439-5.892c-4.511-1.612-9.14-2.416-13.886-2.416
		c-1.831,0-3.488,0.117-4.974,0.338c-1.467,0.23-3.008,0.684-4.632,1.342c-1.312,0.515-2.452,1.29-3.416,2.332
		c-0.961,1.025-1.444,2.186-1.444,3.461c0,1.859,0.769,3.353,2.295,4.447c1.524,1.112,4.477,2.102,8.836,2.976
		c2.832,0.57,5.551,1.105,8.177,1.627c2.62,0.521,5.422,1.243,8.387,2.165c5.846,1.831,10.188,4.303,13.041,7.405
		c2.836,3.089,4.264,7.188,4.264,12.275c0,7.274-3.279,13.134-9.859,17.564C245.724,311.714,236.833,313.932,225.648,313.932"/>
</g>
<path id="gear_1_" display="none" fill="#FFFFFF" stroke="#000000" stroke-width="3" stroke-miterlimit="10" d="M157.396,219.188
	l8.946,19.306c-3.854,6.429-6.666,13.358-8.456,20.442l-18.901,6.956l-0.6,22.869l19.473,7.14
	c1.811,7.263,4.729,14.163,8.471,20.435l-8.996,19.474l15.88,15.881l19.236-9.193c6.424,3.854,13.357,6.669,20.431,8.455
	l6.851,19.05h23.145l6.975-19.017c7.27-1.819,14.162-4.733,20.425-8.479l19.091,8.818l15.896-15.896l-8.826-19.042
	c3.862-6.421,6.674-13.351,8.464-20.431l22.622-11.131l-1.943-18.265l-20.65-7.566c-1.82-7.273-4.73-14.168-8.474-20.438
	l9.016-19.418l-15.734-15.734l-19.395,8.99c-6.433-3.855-13.366-6.665-20.441-8.458l-6.959-18.896l-23.082-0.021l-6.924,18.888
	c-7.267,1.818-14.162,4.732-20.434,8.471l-19.352-8.939L157.396,219.188z"/>
<g display="none">
	<g display="inline">
		<path d="M227.94,228.63c4.832-0.092,8.387,0.139,12.275-3.281c5.875-5.168,3.201-13.819-2.668-17.479
			c-6.024-3.756-14.159-1.215-17.83,4.47c-4.248,6.578,0.989,13.901,7.292,16.166c4.259,1.53,6.076-5.236,1.861-6.75
			c-3.476-1.249-4.66-4.63-1.908-7.299c2.568-2.49,7.326-1.336,9.104,1.417c1.468,2.274-0.688,5.617-3.057,5.662
			c-1.69,0.032-3.38,0.064-5.07,0.096C223.432,221.716,223.424,228.716,227.94,228.63z"/>
		<path d="M243.318,351.061c5.247-1.043,11.049-2.581,16.002-4.74c8.614-3.754,16.453-9.707,24.211-14.903
			c-1.414-0.183-2.828-0.365-4.241-0.548c1.357,1.242,2.715,2.484,4.072,3.726c1.806,1.652,4.112,1.127,5.497-0.708
			c6.708-8.895,6.707-22.012,4.634-32.342c-0.754-3.756-5.599-2.888-6.75,0c0.656-1.645-0.169,0.216-0.387,0.59
			c-0.618,1.061-1.388,1.986-2.202,2.897c-3.94,4.404-9.4,7.308-14.813,9.475c-2.276,0.911-3.676,3.901-1.544,5.85
			c1.681,1.537,3.361,3.074,5.043,4.611c0-1.649,0-3.3,0-4.949c-8.292,6.63-18.821,12.241-29.731,10.101
			c0.484,1.12,0.484,1.314,0,0.583c-0.504-0.657-1.007-1.314-1.511-1.972c-0.157-0.206-1.949-2.833-1.074-1.425
			c0.038,0.061,0.112,0.368-0.119-0.512c-0.189-0.727-0.305-1.474-0.422-2.214c-1.625-10.313-1.429-21.111-1.675-31.52
			c-0.473-20.084-0.529-40.187-0.371-60.275c-0.856,1.125-1.713,2.25-2.569,3.375c10.12-3.935,16.6-9.499,14.818-21.167
			c-1.626-10.645-12.521-16.889-22.547-15.618c-10.203,1.294-17.666,9.542-16.439,19.915c0.541,4.576,2.229,7.708,5.302,11.1
			c2.234,2.466,5.55,3.407,8.532,4.749c-0.578-1.007-1.156-2.015-1.733-3.022c-1.199,32.264-2.398,64.529-3.598,96.792
			c0.342-0.825,0.684-1.65,1.025-2.475c-8.958,9.574-23.894-2.308-31.202-8.736c-0.236,1.832-0.473,3.664-0.708,5.497
			c1.331-0.986,2.662-1.973,3.993-2.959c1.966-1.457,2.544-4.71,0-6.045c-6.073-3.186-14.483-8.382-16.234-15.719
			c-0.833-3.49-5.766-3.192-6.75,0c-3.178,10.312-4.276,23.235,1.232,33.073c0.857,1.531,3.273,2.378,4.789,1.256
			c2.085-1.545,4.17-3.09,6.256-4.634c-1.414-0.183-2.828-0.365-4.242-0.548c12.865,9.979,25.258,19.257,41.378,22.632
			c0.311-2.292,0.621-4.583,0.931-6.875c-0.439-0.017-0.879-0.033-1.318-0.05c-2.995-0.113-4.714,3.937-2.475,5.975
			c4.159,3.786,8.318,7.572,12.478,11.357c1.461,1.33,3.489,1.33,4.95,0c3.839-3.494,7.677-6.988,11.516-10.483
			c2.358-2.146,0.425-5.876-2.475-5.975c-0.153-0.005-0.306-0.011-0.459-0.016c-4.516-0.153-4.501,6.847,0,7
			c0.153,0.005,0.306,0.011,0.459,0.016c-0.825-1.991-1.65-3.983-2.475-5.975c-3.839,3.494-7.678,6.988-11.517,10.483
			c1.65,0,3.3,0,4.95,0c-4.159-3.786-8.318-7.572-12.478-11.357c-0.825,1.991-1.65,3.983-2.475,5.975
			c0.439,0.017,0.879,0.033,1.318,0.05c3.921,0.148,4.813-6.063,0.931-6.875c-14.916-3.122-26.359-11.577-38.29-20.831
			c-1.155-0.896-2.884-1.553-4.242-0.548c-2.085,1.545-4.17,3.09-6.256,4.634c1.596,0.419,3.192,0.838,4.789,1.256
			c-4.579-8.179-3.132-19.224-0.526-27.679c-2.25,0-4.5,0-6.75,0c2.181,9.139,11.742,15.858,19.451,19.902c0-2.015,0-4.03,0-6.045
			c-1.331,0.986-2.662,1.973-3.993,2.959c-1.69,1.253-2.553,3.875-0.708,5.497c6.501,5.719,13.764,10.897,22.131,13.433
			c4.145,1.256,8.718,1.3,12.768-0.272c2.712-1.052,7.108-3.667,7.23-6.952c0.325-8.742,0.65-17.485,0.975-26.228
			c0.874-23.504,1.747-47.007,2.621-70.511c0.042-1.12-0.673-2.545-1.733-3.022c-3.982-1.792-7.098-2.795-9.485-6.688
			c-3.862-6.298,0.809-13.41,6.871-15.541c6.674-2.346,13.97,0.753,16.722,7.285c3.518,8.35-2.26,12.574-9.168,15.26
			c-1.483,0.577-2.556,1.694-2.569,3.375c-0.176,22.353-0.112,44.726,0.551,67.071c0.277,9.331-0.551,20.577,2.396,29.586
			c0.808,2.468,0.998,1.944,2.72,4.193c2.924,3.818,7.492,3.989,12.11,3.995c10.787,0.016,20.936-6.155,29.074-12.663
			c1.447-1.156,1.295-3.766,0-4.949c-1.681-1.537-3.361-3.074-5.043-4.611c-0.515,1.949-1.029,3.899-1.544,5.85
			c8.494-3.401,18.669-8.772,22.29-17.851c-2.25,0-4.5,0-6.75,0c1.736,8.654,1.678,19.515-3.929,26.947
			c1.833-0.236,3.665-0.472,5.497-0.708c-1.357-1.242-2.715-2.484-4.072-3.726c-1.112-1.018-2.902-1.444-4.241-0.548
			c-7.652,5.127-15.348,10.883-23.775,14.714c-4.426,2.012-10.091,3.295-14.766,4.225
			C237.032,345.191,238.91,351.937,243.318,351.061z"/>
	</g>
</g>
<path fill="#FFFFFF" stroke="#000000" stroke-width="3" stroke-miterlimit="10" d="M323.379,291.168
	c0.482-3.851,0.734-7.772,0.734-11.754s-0.252-7.903-0.734-11.753l-15.498-5.353c-1.965-9.223-5.537-17.845-10.404-25.575
	l7.068-14.524c-4.822-6.215-10.412-11.804-16.627-16.626l-14.242,6.93c-7.85-5.135-16.662-8.912-26.113-11.007l-5.096-14.758
	c-3.851-0.483-7.773-0.734-11.754-0.734s-7.903,0.251-11.753,0.734l-5.031,14.565c-9.635,2.026-18.616,5.811-26.615,10.987
	l-13.806-6.718c-6.215,4.823-11.804,10.412-16.626,16.626l6.736,13.843c-5.14,7.984-8.898,16.94-10.907,26.544l-14.663,5.064
	c-0.483,3.85-0.734,7.772-0.734,11.753s0.251,7.903,0.734,11.754l14.914,5.15c2.098,9.364,5.847,18.1,10.933,25.889l-7.012,14.412
	c4.822,6.215,10.412,11.804,16.626,16.627l14.693-7.149c7.668,4.819,16.215,8.362,25.352,10.331l5.406,15.652
	c3.85,0.483,7.773,0.734,11.754,0.734s7.904-0.251,11.754-0.734l5.473-15.845c8.953-2.031,17.328-5.573,24.848-10.351l15.131,7.361
	c6.215-4.823,11.803-10.412,16.627-16.627l-7.344-15.093c4.813-7.536,8.381-15.936,10.43-24.919L323.379,291.168z"/>
<g>
	<path stroke="#000000" stroke-miterlimit="10" d="M243.831,251.103c0.471-0.386,0.942-0.979,1.413-1.782
		c0.544-0.95,1.16-1.425,1.85-1.425c0.979,0,1.577,0.662,1.795,1.985l1.903,12.363l0.218,1.489c0,0.813-0.49,1.218-1.469,1.218
		c-0.726,0-1.251-0.143-1.577-0.43c-0.326-0.286-0.943-1.215-1.85-2.784c-1.559-2.686-4.133-5.1-7.722-7.244
		c-3.589-2.143-7.197-3.214-10.822-3.214c-3.517,0-6.445,0.837-8.783,2.511s-3.508,3.777-3.508,6.311
		c0,2.021,1.088,3.846,3.263,5.475c2.175,1.629,6.363,3.167,12.563,4.612c9.716,2.291,16.297,5.12,19.741,8.488
		c3.408,3.368,5.112,7.112,5.112,11.232c0,4.21-1.251,7.744-3.752,10.601c-2.502,2.856-5.493,5.105-8.974,6.743
		c-3.48,1.639-7.94,2.459-13.378,2.459c-3.082,0-6.273-0.369-9.572-1.105c-3.3-0.737-6.708-1.843-10.224-3.316
		c-0.726,0.692-1.342,1.595-1.849,2.707c-0.581,1.233-1.305,1.851-2.175,1.851c-0.907,0-1.451-0.813-1.632-2.438l-1.577-16.379
		c-0.073-0.722-0.109-1.173-0.109-1.354c0-0.872,0.544-1.309,1.632-1.309c0.797,0,1.558,0.753,2.284,2.256
		c2.211,4.513,5.221,8.273,9.028,11.281c3.77,3.008,8.175,4.512,13.215,4.512c4.277,0,7.731-1.053,10.36-3.158
		c2.628-2.105,3.943-4.497,3.943-7.175c0-2.677-1.215-4.933-3.644-6.768c-2.429-1.835-6.798-3.595-13.106-5.279
		c-6.128-1.654-10.687-3.233-13.678-4.738c-2.991-1.504-5.384-3.571-7.179-6.204c-1.795-2.632-2.692-5.302-2.692-8.009
		c0-4.722,2.202-8.738,6.607-12.047s10.396-4.963,17.974-4.963C231.558,248.077,237.014,249.085,243.831,251.103z"/>
</g>
<g id="base">
	<path fill="none" stroke="#000000" stroke-width="10" stroke-miterlimit="2.6131" d="M76.457,92.008V90.47
		c0-0.396-0.124-1.02-0.275-1.386L63.206,57.665C63.055,57.299,63.255,57,63.651,57h97.766c0.396,0,0.543-0.271,0.327-0.604
		l-16.125-24.768c-0.216-0.332-0.069-0.604,0.327-0.604H315.87c0.396,0,0.543,0.271,0.327,0.604l-16.125,24.768
		c-0.216,0.332-0.068,0.604,0.327,0.604h97.766c0.396,0,0.596,0.299,0.445,0.666l-12.975,31.419c-0.15,0.366-0.274,0.99-0.274,1.386
		v1.539 M385.361,92.008v281.604c0,0.396-0.271,0.897-0.602,1.115L231.509,475.58c-0.331,0.218-0.872,0.218-1.203,0L77.058,374.727
		c-0.331-0.218-0.602-0.72-0.602-1.115V89.75"/>
</g>
<g>
	<path fill="none" stroke="#000000" stroke-width="8" stroke-miterlimit="2.6131" d="M100.873,127.877v232.34
		c0,0.396,0.275,0.891,0.611,1.101l128.802,80.204c0.336,0.21,0.888,0.212,1.225,0.005l130.819-80.214
		c0.338-0.207,0.614-0.7,0.614-1.096v-232.34"/>
</g>
<g>
	<path fill-rule="evenodd" clip-rule="evenodd" d="M12.085,152.133c0,1.98,1.62,3.6,3.6,3.6h235.113c1.979,0,5.22,0,7.199,0h188.881
		c1.979,0,3.6-1.62,3.6-3.6V94.858c0-1.98-1.62-3.6-3.6-3.6H15.685c-1.98,0-3.6,1.62-3.6,3.6V152.133z"/>
</g>
<path id="S_x26_A" fill="#FFFFFF" d="M392.563,142.582v-38.146h13.445c3.758,0,6.52,0.778,8.288,2.329
	c1.772,1.547,2.656,3.974,2.656,7.266c0,2.711-0.494,4.804-1.489,6.286c-0.996,1.483-2.591,2.534-4.783,3.154
	c1.766,0.228,3.062,0.854,3.868,1.905c0.818,1.042,1.35,2.798,1.611,5.29l0.577,5.508c0.172,1.527,0.388,2.816,0.651,3.848
	c0.269,1.034,0.598,1.891,1.01,2.561h-7.501c-0.231-0.537-0.421-1.147-0.554-1.836c-0.144-0.688-0.256-1.633-0.345-2.817
	l-0.456-5.771c-0.182-2.324-0.487-3.727-0.936-4.211c-0.442-0.487-1.536-0.724-3.279-0.724h-5.968v15.359H392.563 M399.359,121.013
	h4.082c2.559,0,4.319-0.387,5.269-1.164c0.951-0.777,1.423-2.127,1.423-4.06c0-2.05-0.449-3.471-1.348-4.265
	c-0.898-0.794-2.681-1.191-5.344-1.191h-4.082V121.013z M356.501,123.311c0-6.022,1.385-10.762,4.156-14.241
	c2.768-3.468,6.543-5.208,11.303-5.208c4.754,0,8.512,1.74,11.268,5.208c2.755,3.479,4.132,8.219,4.132,14.241
	c0,6.223-1.362,11.096-4.079,14.628c-2.718,3.521-6.49,5.288-11.32,5.288c-4.836,0-8.625-1.757-11.355-5.279
	C357.871,134.434,356.501,129.551,356.501,123.311z M363.741,123.364c0,4.634,0.696,8.157,2.08,10.559
	c1.393,2.408,3.421,3.609,6.102,3.609c2.688,0,4.724-1.201,6.117-3.609c1.384-2.402,2.08-5.925,2.08-10.559
	c0-4.557-0.703-8.025-2.104-10.41c-1.408-2.392-3.437-3.583-6.094-3.583c-2.649,0-4.673,1.199-6.078,3.592
	C364.443,115.367,363.741,118.824,363.741,123.364z M325.428,142.582v-38.146h6.977V119.7h12.216v-15.265h6.73v38.146h-6.73v-16.676
	h-12.216v16.676H325.428z M320.822,131.148c-0.232,3.93-1.475,6.932-3.728,8.988c-2.254,2.057-5.414,3.09-9.478,3.09
	c-4.822,0-8.482-1.661-10.969-4.971c-2.483-3.309-3.728-8.167-3.728-14.584c0-6.399,1.28-11.31,3.84-14.726
	c2.56-3.425,6.22-5.136,10.99-5.136c3.893,0,6.969,1.032,9.245,3.088c2.277,2.058,3.496,4.909,3.653,8.545h-6.385
	c-0.076-1.825-0.675-3.283-1.797-4.379c-1.132-1.095-2.613-1.641-4.456-1.641c-2.688,0-4.716,1.183-6.085,3.558
	c-1.369,2.366-2.052,5.879-2.052,10.54c0,4.794,0.675,8.344,2.022,10.665c1.338,2.321,3.398,3.478,6.161,3.478
	c1.781,0,3.239-0.59,4.372-1.783c1.138-1.192,1.758-2.763,1.878-4.733H320.822z M259.585,142.582v-38.146h9.979l12.172,30.669
	v-30.669h6.207v38.146h-9.582l-12.569-31.579v31.579H259.585z M235.92,128.121h9.344l-4.449-16.164L235.92,128.121z
	 M225.134,142.582l11.731-38.146h8.16l11.274,38.146h-7.037l-2.307-8.201h-12.786l-2.523,8.201H225.134z M201.111,136.968v-11.222
	h-3.73c-1.811,0-3.098,0.434-3.862,1.307c-0.771,0.866-1.152,2.303-1.152,4.299c0,2.058,0.36,3.504,1.071,4.345
	c0.718,0.848,1.99,1.271,3.817,1.271H201.111z M201.111,120.238v-4.988h6.558v4.988h3.997v5.508h-3.997v16.835h-11.14
	c-2.561,0-4.35-0.133-5.36-0.388c-1.019-0.256-1.887-0.697-2.599-1.316c-1.054-0.917-1.856-2.082-2.401-3.496
	c-0.547-1.412-0.824-3.02-0.824-4.812c0-2.648,0.547-4.813,1.648-6.462c1.092-1.65,2.634-2.648,4.603-2.975
	c-1.624-0.467-2.881-1.448-3.789-2.958c-0.898-1.509-1.346-3.381-1.346-5.607c0-3.239,0.875-5.746,2.62-7.521
	c1.752-1.775,4.215-2.666,7.404-2.666h4.126v5.694h-3.354c-1.378,0-2.403,0.396-3.085,1.19c-0.68,0.795-1.017,1.995-1.017,3.622
	c0,1.845,0.33,3.194,0.995,4.061c0.666,0.855,1.7,1.288,3.107,1.288H201.111z M142.007,142.582v-38.146h6.976V119.7h12.218v-15.265
	h6.729v38.146h-6.729v-16.676h-12.218v16.676H142.007z M118.343,128.121h9.342l-4.446-16.164L118.343,128.121z M107.555,142.582
	l11.73-38.146h8.159l11.276,38.146h-7.038l-2.306-8.201h-12.787l-2.523,8.201H107.555z M78.404,142.582v-38.146h6.977V119.7h12.218
	v-15.265h6.73v38.146h-6.73v-16.676H85.38v16.676H78.404z M47.591,130.188h6.774c0,2.533,0.531,4.44,1.588,5.719
	c1.063,1.281,2.657,1.917,4.797,1.917c1.706,0,3.1-0.494,4.177-1.493c1.071-0.987,1.61-2.241,1.61-3.76
	c0-2.4-2.537-4.617-7.605-6.646l-0.726-0.283c-0.165-0.071-0.381-0.158-0.659-0.266c-2.838-1.103-4.881-2.207-6.139-3.311
	c-0.906-0.785-1.602-1.8-2.096-3.036c-0.488-1.228-0.735-2.596-0.735-4.097c0-3.425,1.101-6.145,3.303-8.158
	c2.201-2.003,5.195-3.01,8.998-3.01c3.557,0,6.303,0.97,8.258,2.922c1.954,1.95,2.926,4.68,2.926,8.203v0.203H66.05
	c-0.148-1.979-0.695-3.487-1.654-4.522c-0.958-1.032-2.275-1.553-3.952-1.553c-1.625,0-2.913,0.443-3.87,1.317
	c-0.958,0.883-1.437,2.065-1.437,3.539c0,2.313,2.658,4.485,7.979,6.516l0.413,0.158c4.072,1.59,6.745,3.17,8.024,4.758
	c1.28,1.59,1.917,3.779,1.917,6.567c0,3.551-1.153,6.332-3.451,8.345c-2.306,2.003-5.51,3.01-9.62,3.01
	c-4.267,0-7.471-1.043-9.604-3.134c-2.133-2.084-3.204-5.218-3.204-9.386V130.188z"/>
<g>
	
		<circle fill-rule="evenodd" clip-rule="evenodd" fill="#FFFFFF" stroke="#000000" stroke-width="3" stroke-miterlimit="2.6131" cx="230.897" cy="223.042" r="7.354"/>
	<g>
		<g>
			<path id="imporetd_anchor_3_" fill="none" stroke="#000000" stroke-width="4" stroke-miterlimit="2.6131" d="M242.865,337.945
				c3.079-2.424,11.744-1.268,37.234-17.127l3.895,3.303c0,0,9.987-10.558,4.096-26.298c0,0-3.747,7.816-18.986,13.666l4.824,4.093
				c-6.955,5.244-20.164,13.087-33.275,9.369l-2.739-3.318c-3.795-3.857-2.896-84.861-2.896-84.861
				c6.324-2.254,10.213-6.375,10.213-14.375c0-8.875-6.979-13.714-14.333-13.714 M230.908,347.344l11.957-9.399"/>
			<path id="imporetd_anchor_1_" fill="none" stroke="#000000" stroke-width="4" stroke-miterlimit="2.6131" d="M230.908,208.682
				c-7.354,0-14.333,4.839-14.333,13.714c0,8,3.889,12.122,10.213,14.375c0,0,0.899,81.003-2.896,84.861l-2.739,3.318
				c-13.111,3.718-26.32-4.125-33.275-9.369l4.824-4.093c-15.239-5.85-18.986-13.666-18.986-13.666
				c-5.892,15.74,4.096,26.298,4.096,26.298l3.895-3.303c25.49,15.859,34.155,14.703,37.234,17.127 M218.94,337.945"/>
		</g>
		
			<line fill="none" stroke="#000000" stroke-width="4" stroke-miterlimit="2.6131" x1="218.94" y1="337.945" x2="230.908" y2="347.344"/>
	</g>
</g>
<g>
</g>
<g display="none">
	<path display="inline" fill="none" stroke="#FFFFFF" stroke-width="4.4109" stroke-miterlimit="10" d="M78.947,113.46H68.116
		v-2.734c0-1.276-0.138-2.088-0.416-2.438c-0.277-0.349-0.739-0.524-1.385-0.524c-0.702,0-1.233,0.236-1.593,0.707
		c-0.36,0.471-0.541,1.185-0.541,2.143c0,1.231,0.202,2.158,0.607,2.781c0.387,0.623,1.485,1.375,3.295,2.255
		c5.191,2.534,8.461,4.613,9.81,6.238c1.348,1.625,2.022,4.245,2.022,7.859c0,2.627-0.374,4.564-1.122,5.809
		c-0.748,1.246-2.193,2.29-4.335,3.132c-2.143,0.843-4.636,1.264-7.479,1.264c-3.121,0-5.785-0.486-7.992-1.458
		c-2.207-0.972-3.652-2.209-4.335-3.713s-1.025-3.637-1.025-6.401v-2.415H64.46v4.488c0,1.382,0.152,2.271,0.457,2.665
		c0.305,0.395,0.845,0.592,1.621,0.592c0.775,0,1.353-0.25,1.731-0.752c0.378-0.501,0.568-1.245,0.568-2.232
		c0-2.171-0.36-3.591-1.08-4.26c-0.739-0.668-2.558-1.784-5.457-3.349c-2.9-1.58-4.82-2.726-5.762-3.44
		c-0.942-0.713-1.722-1.701-2.341-2.961c-0.619-1.26-0.928-2.87-0.928-4.83c0-2.825,0.438-4.89,1.316-6.196
		c0.877-1.306,2.294-2.327,4.252-3.064c1.957-0.737,4.321-1.105,7.091-1.105c3.029,0,5.61,0.402,7.743,1.208
		c2.133,0.805,3.546,1.819,4.238,3.041c0.692,1.223,1.039,3.299,1.039,6.23V113.46z"/>
	<path display="inline" fill="none" stroke="#FFFFFF" stroke-width="4.4109" stroke-miterlimit="10" d="M110.388,102.297v36.881
		H98.726v-15.491h-3.49v15.491H83.573v-36.881h11.663v13.19h3.49v-13.19H110.388z"/>
	<path display="inline" fill="none" stroke="#FFFFFF" stroke-width="4.4109" stroke-miterlimit="10" d="M135.229,102.297
		l6.669,36.881H129.98l-0.625-6.629h-4.172l-0.701,6.629h-12.057l5.949-36.881H135.229z M129.049,126.012
		c-0.59-4.177-1.183-9.341-1.776-15.491c-1.188,7.063-1.935,12.226-2.238,15.491H129.049z"/>
	<path display="inline" fill="none" stroke="#FFFFFF" stroke-width="4.4109" stroke-miterlimit="10" d="M170.694,102.297v36.881
		h-11.662v-15.491h-3.49v15.491h-11.663v-36.881h11.663v13.19h3.49v-13.19H170.694z"/>
	<path display="inline" fill="none" stroke="#FFFFFF" stroke-width="4.4109" stroke-miterlimit="10" d="M214.96,125.169v6.219
		l-3.12,1.641l3.91,6.15h-10.361l-1.346-2.048c-3.471,1.882-6.758,2.823-9.86,2.823c-3.25,0-5.752-0.888-7.506-2.665
		c-1.754-1.777-2.631-3.918-2.631-6.424c0-2.004,0.517-3.576,1.551-4.715s2.585-2.065,4.654-2.779
		c-2.955-1.746-4.432-4.108-4.432-7.084c0-2.566,1.053-4.632,3.158-6.196c2.105-1.564,5.004-2.347,8.698-2.347
		c3.324,0,5.942,0.767,7.853,2.301c1.912,1.534,2.867,3.485,2.867,5.854c0,2.491-1.164,4.7-3.49,6.629l3.949,5.871L214.96,125.169z
		 M200.208,132.967l-3.613-4.974c-1.386,1.033-2.079,2.149-2.079,3.349c0,0.866,0.216,1.515,0.649,1.948
		c0.433,0.433,1.073,0.649,1.92,0.649C197.989,133.939,199.029,133.615,200.208,132.967z M197.702,118.722
		c1.256-1.357,1.884-2.653,1.884-3.887c0-0.534-0.185-1.022-0.554-1.464s-0.886-0.663-1.551-0.663c-0.609,0-1.071,0.168-1.385,0.503
		c-0.314,0.335-0.471,0.846-0.471,1.532C195.625,116.176,196.317,117.502,197.702,118.722z"/>
	<path display="inline" fill="none" stroke="#FFFFFF" stroke-width="4.4109" stroke-miterlimit="10" d="M248.222,102.297
		l6.67,36.881h-11.918l-0.627-6.629h-4.171l-0.701,6.629h-12.057l5.949-36.881H248.222z M242.042,126.012
		c-0.591-4.177-1.183-9.341-1.777-15.491c-1.188,7.063-1.935,12.226-2.238,15.491H242.042z"/>
	<path display="inline" fill="none" stroke="#FFFFFF" stroke-width="4.4109" stroke-miterlimit="10" d="M282.911,102.297v36.881
		h-10.222l-6.066-16.766v16.766h-9.751v-36.881h9.751l6.537,16.607v-16.607H282.911z"/>
	<path display="inline" fill="none" stroke="#FFFFFF" stroke-width="4.4109" stroke-miterlimit="10" d="M314.823,118.357H303.16
		v-6.41c0-1.864-0.124-3.027-0.373-3.489c-0.25-0.462-0.8-0.693-1.648-0.693c-0.961,0-1.57,0.281-1.828,0.843
		c-0.259,0.562-0.389,1.777-0.389,3.645v17.131c0,1.792,0.13,2.961,0.389,3.508c0.258,0.547,0.84,0.82,1.745,0.82
		c0.867,0,1.436-0.274,1.703-0.822c0.268-0.548,0.401-1.834,0.401-3.859v-4.636h11.663v1.437c0,3.817-0.328,6.525-0.983,8.122
		c-0.656,1.597-2.105,2.996-4.35,4.198s-5.01,1.802-8.297,1.802c-3.416,0-6.232-0.509-8.448-1.526
		c-2.216-1.017-3.685-2.426-4.404-4.226c-0.721-1.8-1.081-4.506-1.081-8.121v-10.775c0-2.658,0.111-4.651,0.333-5.98
		c0.222-1.329,0.882-2.608,1.98-3.838c1.099-1.23,2.622-2.198,4.57-2.905c1.948-0.706,4.188-1.059,6.718-1.059
		c3.435,0,6.27,0.546,8.504,1.638c2.234,1.092,3.703,2.453,4.405,4.083c0.701,1.63,1.053,4.167,1.053,7.609V118.357z"/>
	<path display="inline" fill="none" stroke="#FFFFFF" stroke-width="4.4109" stroke-miterlimit="10" d="M345.82,102.297v36.881
		h-11.662v-15.491h-3.49v15.491h-11.662v-36.881h11.662v13.19h3.49v-13.19H345.82z"/>
	<path display="inline" fill="none" stroke="#FFFFFF" stroke-width="4.4109" stroke-miterlimit="10" d="M377.15,123.893
		c0,3.706-0.106,6.33-0.318,7.871c-0.213,1.542-0.878,2.95-1.995,4.226c-1.117,1.276-2.627,2.255-4.529,2.939
		c-1.902,0.683-4.118,1.025-6.647,1.025c-2.401,0-4.558-0.323-6.469-0.968c-1.911-0.645-3.448-1.613-4.612-2.904
		c-1.163-1.291-1.855-2.695-2.077-4.214c-0.222-1.519-0.333-4.176-0.333-7.973v-6.31c0-3.706,0.106-6.329,0.319-7.871
		c0.212-1.541,0.877-2.95,1.994-4.226c1.117-1.276,2.627-2.255,4.529-2.939c1.901-0.683,4.118-1.025,6.648-1.025
		c2.4,0,4.557,0.323,6.468,0.968s3.449,1.614,4.612,2.904c1.163,1.291,1.856,2.696,2.077,4.214c0.222,1.519,0.333,4.177,0.333,7.973
		V123.893z M365.488,111.774c0-1.716-0.116-2.813-0.347-3.292c-0.23-0.479-0.706-0.718-1.427-0.718
		c-0.609,0-1.076,0.194-1.398,0.581c-0.323,0.387-0.485,1.53-0.485,3.428v17.222c0,2.141,0.106,3.462,0.319,3.963
		c0.212,0.501,0.706,0.752,1.481,0.752c0.794,0,1.302-0.288,1.523-0.866c0.222-0.577,0.333-1.951,0.333-4.123V111.774z"/>
	<path display="inline" fill="none" stroke="#FFFFFF" stroke-width="4.4109" stroke-miterlimit="10" d="M381.5,102.297h8.255
		c5.503,0,9.229,0.175,11.178,0.524c1.947,0.35,3.536,1.242,4.764,2.677c1.229,1.435,1.843,3.725,1.843,6.868
		c0,2.871-0.435,4.799-1.302,5.786c-0.869,0.987-2.576,1.58-5.125,1.777c2.309,0.471,3.859,1.102,4.653,1.891
		s1.288,1.515,1.482,2.175s0.291,2.479,0.291,5.456v9.727h-10.831v-12.256c0-1.974-0.189-3.197-0.568-3.667
		s-1.371-0.706-2.978-0.706v16.629H381.5V102.297z M393.162,108.607v8.201c1.311,0,2.229-0.148,2.756-0.444
		c0.526-0.296,0.79-1.256,0.79-2.882v-2.027c0-1.169-0.254-1.937-0.762-2.301C395.438,108.79,394.51,108.607,393.162,108.607z"/>
</g>
<g>
	<line stroke="#000000" stroke-width="8" stroke-miterlimit="10" x1="230.755" y1="31.019" x2="230.738" y2="91.258"/>
	<path stroke="#000000" stroke-width="8" stroke-miterlimit="10" d="M230.897,155.607"/>
	
		<line fill="none" stroke="#000000" stroke-width="8" stroke-miterlimit="10" x1="230.897" y1="441.903" x2="230.908" y2="383.396"/>
	<line stroke="#000000" stroke-width="8" stroke-miterlimit="10" x1="230.712" y1="183.641" x2="230.897" y2="155.607"/>
</g>
<g>
</g>
<g>
</g>
<g>
</g>
<g>
</g>
<g>
</g>
<g>
</g>
</svg>
